<svg width="60" height="61" viewBox="0 0 60 61" fill="none" xmlns="http://www.w3.org/2000/svg">
<path opacity="0.21" fill-rule="evenodd" clip-rule="evenodd" d="M0 30.5V56.5C0 58.7091 1.79086 60.5 4 60.5H30H56C58.2091 60.5 60 58.7091 60 56.5V30.5V4.5C60 2.29086 58.2091 0.5 56 0.5H30H4C1.79086 0.5 0 2.29086 0 4.5V30.5Z" fill="#FEC53D"/>
<path fill-rule="evenodd" clip-rule="evenodd" d="M15 24.8169L27.9005 32.265C28.0394 32.3452 28.1851 32.4031 28.3333 32.4399V46.8851L15.9201 39.5389C15.3498 39.2014 15 38.588 15 37.9253V24.8169ZM44.9995 24.6187V37.9251C44.9995 38.5878 44.6497 39.2012 44.0795 39.5387L31.6662 46.8849V32.3131C31.6964 32.298 31.7264 32.2819 31.7561 32.2648L44.9995 24.6187Z" fill="#FEC53D"/>
<path opacity="0.499209" fill-rule="evenodd" clip-rule="evenodd" d="M15.4063 21.2014C15.5638 21.0024 15.7627 20.8343 15.9946 20.7108L29.1196 13.7201C29.6706 13.4266 30.3315 13.4266 30.8825 13.7201L44.0075 20.7108C44.1862 20.806 44.3454 20.9277 44.4811 21.0697L30.0909 29.3778C29.9963 29.4325 29.9091 29.495 29.8296 29.564C29.75 29.495 29.6628 29.4325 29.5682 29.3778L15.4063 21.2014Z" fill="#FEC53D"/>
</svg>
