<svg width="60" height="61" viewBox="0 0 60 61" fill="none" xmlns="http://www.w3.org/2000/svg">
<path opacity="0.21" fill-rule="evenodd" clip-rule="evenodd" d="M0 30.5V56.5C0 58.7091 1.79086 60.5 4 60.5H30H56C58.2091 60.5 60 58.7091 60 56.5V30.5V4.5C60 2.29086 58.2091 0.5 56 0.5H30H4C1.79086 0.5 0 2.29086 0 4.5V30.5Z" fill="#4AD991"/>
<path d="M19.1072 41.3889H42.4405C43.2996 41.3889 43.9961 42.0853 43.9961 42.9444C43.9961 43.8036 43.2996 44.5 42.4405 44.5H17.5516C16.6925 44.5 15.9961 43.8036 15.9961 42.9444V18.0556C15.9961 17.1964 16.6925 16.5 17.5516 16.5C18.4108 16.5 19.1072 17.1964 19.1072 18.0556V41.3889Z" fill="#4AD991"/>
<path opacity="0.5" d="M24.9131 34.675C24.3255 35.3017 23.3411 35.3335 22.7143 34.7459C22.0876 34.1583 22.0558 33.1739 22.6434 32.5472L28.4767 26.3249C29.045 25.7188 29.9893 25.6662 30.6213 26.2056L35.2253 30.1343L41.224 22.5361C41.7563 21.8618 42.7345 21.7467 43.4088 22.279C44.0831 22.8114 44.1982 23.7895 43.6658 24.4638L36.6658 33.3305C36.1191 34.0231 35.1063 34.1227 34.4351 33.5499L29.7311 29.5358L24.9131 34.675Z" fill="#4AD991"/>
</svg>
