<svg width="60" height="61" viewBox="0 0 60 61" fill="none" xmlns="http://www.w3.org/2000/svg">
<path opacity="0.21" fill-rule="evenodd" clip-rule="evenodd" d="M0 30.5V56.5C0 58.7091 1.79086 60.5 4 60.5H30H56C58.2091 60.5 60 58.7091 60 56.5V30.5V4.5C60 2.29086 58.2091 0.5 56 0.5H30H4C1.79086 0.5 0 2.29086 0 4.5V30.5Z" fill="#8280FF"/>
<path opacity="0.587821" fill-rule="evenodd" clip-rule="evenodd" d="M20.6641 23.8333C20.6641 26.7789 23.0519 29.1667 25.9974 29.1667C28.9429 29.1667 31.3307 26.7789 31.3307 23.8333C31.3307 20.8878 28.9429 18.5 25.9974 18.5C23.0519 18.5 20.6641 20.8878 20.6641 23.8333ZM33.9987 29.1665C33.9987 31.3756 35.7896 33.1665 37.9987 33.1665C40.2079 33.1665 41.9987 31.3756 41.9987 29.1665C41.9987 26.9574 40.2079 25.1665 37.9987 25.1665C35.7896 25.1665 33.9987 26.9574 33.9987 29.1665Z" fill="#004AAD"/>
<path fill-rule="evenodd" clip-rule="evenodd" d="M25.9739 31.8335C19.6786 31.8335 14.5138 35.0689 13.997 41.4324C13.9688 41.7791 14.6317 42.5002 14.9661 42.5002H36.9917C37.9933 42.5002 38.0089 41.6941 37.9933 41.4335C37.6026 34.8911 32.3577 31.8335 25.9739 31.8335ZM45.2699 42.4995H40.1269C40.1269 39.4982 39.1352 36.7286 37.4616 34.5003C42.0045 34.5493 45.7141 36.8457 45.9933 41.6995C46.0045 41.895 45.9933 42.4995 45.2699 42.4995Z" fill="#004AAD"/>
</svg>
