<svg width="60" height="61" viewBox="0 0 60 61" fill="none" xmlns="http://www.w3.org/2000/svg">
<path opacity="0.3" fill-rule="evenodd" clip-rule="evenodd" d="M0 30.5V56.5C0 58.7091 1.79086 60.5 4 60.5H30H56C58.2091 60.5 60 58.7091 60 56.5V30.5V4.5C60 2.29086 58.2091 0.5 56 0.5H30H4C1.79086 0.5 0 2.29086 0 4.5V30.5Z" fill="#FF9066"/>
<path opacity="0.78" fill-rule="evenodd" clip-rule="evenodd" d="M28.6338 24.3088C28.6539 24.0483 28.8711 23.8472 29.1324 23.8472H29.5502C29.8071 23.8472 30.0222 24.0418 30.0477 24.2974L30.6694 30.5138L35.0841 33.0365C35.2399 33.1256 35.336 33.2912 35.336 33.4707V33.8592C35.336 34.1889 35.0225 34.4283 34.7045 34.3416L28.4014 32.6226C28.17 32.5595 28.016 32.341 28.0344 32.1018L28.6338 24.3088Z" fill="#FF9066"/>
<path opacity="0.901274" fill-rule="evenodd" clip-rule="evenodd" d="M22.7241 15.4846C22.46 15.1698 21.9501 15.2903 21.8547 15.69L20.2213 22.5381C20.1436 22.8638 20.4017 23.1723 20.7359 23.1533L27.7807 22.7541C28.1916 22.7308 28.4 22.2488 28.1354 21.9335L26.3336 19.7862C27.4979 19.3886 28.7324 19.181 30 19.181C36.2592 19.181 41.3333 24.2551 41.3333 30.5143C41.3333 36.7735 36.2592 41.8476 30 41.8476C23.7408 41.8476 18.6667 36.7735 18.6667 30.5143C18.6667 29.4635 18.809 28.4344 19.0864 27.4453L16.5188 26.7251C16.1808 27.9302 16 29.2012 16 30.5143C16 38.2463 22.268 44.5143 30 44.5143C37.732 44.5143 44 38.2463 44 30.5143C44 22.7823 37.732 16.5143 30 16.5143C28.0559 16.5143 26.2043 16.9106 24.5216 17.6268L22.7241 15.4846Z" fill="#FF9066"/>
</svg>
